<svg width="1920" height="1080" viewBox="0 0 1920 1080" fill="none" xmlns="http://www.w3.org/2000/svg">
<rect x="0.5" y="0.5" width="1919" height="1079" stroke="black"/>
<g style="mix-blend-mode:overlay">
<rect x="522.013" y="446.39" width="153.496" height="36.6076" rx="2" transform="rotate(2.80584 522.013 446.39)" fill="#FFF4F4"/>
<rect x="522.013" y="446.39" width="153.496" height="36.6076" rx="2" transform="rotate(2.80584 522.013 446.39)" stroke="#474747" stroke-width="2"/>
</g>
<g style="mix-blend-mode:overlay">
<rect x="817.787" y="457.161" width="104.303" height="43.5434" rx="2" transform="rotate(2.93204 817.787 457.161)" fill="#FFF4F4"/>
<rect x="817.787" y="457.161" width="104.303" height="43.5434" rx="2" transform="rotate(2.93204 817.787 457.161)" stroke="#474747" stroke-width="2"/>
</g>
<g style="mix-blend-mode:overlay">
<rect x="1284.8" y="588.986" width="153.346" height="130.668" rx="2" transform="rotate(0.793102 1284.8 588.986)" fill="#FFF4F4"/>
<rect x="1284.8" y="588.986" width="153.346" height="130.668" rx="2" transform="rotate(0.793102 1284.8 588.986)" stroke="#474747" stroke-width="2"/>
</g>
<g style="mix-blend-mode:overlay">
<path d="M364.822 439.596L418.267 443.851C419.368 443.939 420.189 444.902 420.102 446.003L417.164 482.898C417.076 483.999 416.113 484.821 415.012 484.733L361.568 480.478C360.467 480.39 359.646 479.427 359.733 478.326L362.67 441.431C362.758 440.33 363.721 439.509 364.822 439.596Z" fill="#FFF4F4"/>
<path d="M364.822 439.596L418.267 443.851C419.368 443.939 420.189 444.902 420.102 446.003L417.164 482.898C417.076 483.999 416.113 484.821 415.012 484.733L361.568 480.478C360.467 480.39 359.646 479.427 359.733 478.326L362.67 441.431C362.758 440.33 363.721 439.509 364.822 439.596Z" stroke="#474747" stroke-width="2"/>
</g>
<g style="mix-blend-mode:overlay">
<path d="M943.005 573.995C944.109 574.001 945 574.901 944.994 576.005L944.571 657.589C944.565 658.693 943.666 659.584 942.562 659.578L831.994 659.005C830.89 658.999 829.999 658.099 830.005 656.995L830.428 575.411C830.434 574.307 831.334 573.416 832.438 573.422L943.005 573.995Z" fill="#FFF4F4"/>
<path d="M943.005 573.995C944.109 574.001 945 574.901 944.994 576.005L944.571 657.589C944.565 658.693 943.666 659.584 942.562 659.578L831.994 659.005C830.89 658.999 829.999 658.099 830.005 656.995L830.428 575.411C830.434 574.307 831.334 573.416 832.438 573.422L943.005 573.995Z" stroke="#474747" stroke-width="2"/>
</g>
<g style="mix-blend-mode:overlay">
<rect x="947.792" y="522.345" width="136.441" height="108.68" rx="2" transform="rotate(0.296922 947.792 522.345)" fill="#FFF4F4"/>
<rect x="947.792" y="522.345" width="136.441" height="108.68" rx="2" transform="rotate(0.296922 947.792 522.345)" stroke="#474747" stroke-width="2"/>
</g>
<g style="mix-blend-mode:overlay">
<rect x="1423.47" y="455.011" width="61.6378" height="42.0336" rx="2" transform="rotate(-2.09474 1423.47 455.011)" fill="#FFF4F4"/>
<rect x="1423.47" y="455.011" width="61.6378" height="42.0336" rx="2" transform="rotate(-2.09474 1423.47 455.011)" stroke="#474747" stroke-width="2"/>
</g>
<g style="mix-blend-mode:overlay">
<path d="M1435.85 345.515C1436.95 345.521 1437.85 346.42 1437.84 347.525L1437.28 455.57C1437.27 456.674 1436.37 457.565 1435.27 457.559L1337.01 457.049C1335.9 457.043 1335.01 456.144 1335.02 455.039L1335.58 346.995C1335.58 345.891 1336.48 344.999 1337.59 345.005L1435.85 345.515ZM1323.48 215.55C1324.59 215.556 1325.48 216.455 1325.47 217.56L1324.64 378.365C1324.63 379.47 1323.73 380.36 1322.63 380.355L1215.86 379.802C1214.75 379.796 1213.86 378.896 1213.87 377.791L1214.7 216.986C1214.71 215.881 1215.61 214.991 1216.71 214.996L1323.48 215.55Z" fill="#FFF4F4"/>
<path d="M1435.85 345.515C1436.95 345.521 1437.85 346.42 1437.84 347.525L1437.28 455.57C1437.27 456.674 1436.37 457.565 1435.27 457.559L1337.01 457.049C1335.9 457.043 1335.01 456.144 1335.02 455.039L1335.58 346.995C1335.58 345.891 1336.48 344.999 1337.59 345.005L1435.85 345.515ZM1323.48 215.55C1324.59 215.556 1325.48 216.455 1325.47 217.56L1324.64 378.365C1324.63 379.47 1323.73 380.36 1322.63 380.355L1215.86 379.802C1214.75 379.796 1213.86 378.896 1213.87 377.791L1214.7 216.986C1214.71 215.881 1215.61 214.991 1216.71 214.996L1323.48 215.55Z" stroke="#474747" stroke-width="2"/>
</g>
</svg>
